# xmcd
#
# Track frame offsets:
#       150
#       15779
#       31565
#       47098
#       60525
#       88787
#       105929
#       135696
#       172261
#       198323
#       228494
#       260413
#       280546
#       300510
#       324777
#
# Disc length: 4575 seconds
#
# Revision: 0
# Processed by: cddbd v1.5.1PL0 Copyright (c) Steve Scherf et al.
# Submitted via: WaveLab 4.01
#
DISCID=b211dd0f
DTITLE=Various Artist - Trance Charts 2003.1 CD 1
DYEAR=2003
DGENRE=Trance
TTITLE0=Gouryella - Ligaya (Radio Vocal Edit)
TTITLE1=Junkfood Junkies - Party Time
TTITLE2=1st Wave - Hi Tonite
TTITLE3=Condor - Velvet Dreams
TTITLE4=Roland Klein - Skydiver
TTITLE5=Lyala - Time to fly
TTITLE6=Sonic MP - Reflections (Observer Remix)
TTITLE7=Yahel - Devotion (Armin van Buuren Mix)
TTITLE8=Dee Mark - Fireworks (Maxi Club Version)
TTITLE9=DJ Fuchur - Last flight (Y.O.M.C. Remix)
TTITLE10=SMP pres. DJ Tom - 4 ever (Pedro del Mar Remix)
TTITLE11=Deepstahl - L´été
TTITLE12=Clubformers - Rock da jam
TTITLE13=Skydiver - Liberation day (DJ Genetic Remix)
TTITLE14=The Mystery - All I ever wanted (Devotion) (Original Mix)
EXTD=
EXTT0=
EXTT1=
EXTT2=
EXTT3=
EXTT4=
EXTT5=
EXTT6=
EXTT7=
EXTT8=
EXTT9=
EXTT10=
EXTT11=
EXTT12=
EXTT13=
EXTT14=
PLAYORDER=
